# xmcd
#
# Track frame offsets: 
#        182
#        19270
#        42437
#        81885
#        99817
#        113100
#        162350
#        213532
#        264155
#        294690
#
# Disc length: 4267 seconds
#
# Revision: 1
# Processed by: cddbd v1.5.2PL0 Copyright (c) Steve Scherf et al.
# Submitted via: ExactAudioCopy v0.99pb5
#
DISCID=8410a90a
DTITLE=Sheila Jordan and Harvie Swartz - The Very Thought Of Two
DYEAR=1995
DGENRE=Blues
TTITLE0=The Very Thought Of You
TTITLE1=Lost In The Stars
TTITLE2=Honeysuckle Rose - Ain't Misbehavin'
TTITLE3=You Are My Sunshine
TTITLE4=Dat Dere
TTITLE5=The Bird - Quasimodo
TTITLE6=Spirits Arise - Mourning Song - The Water Is Wide
TTITLE7=Let's Face The Music And Dance - Cheek To Cheek - Sheila's Blu
TTITLE7=es
TTITLE8=You Must Believe In Spring
TTITLE9=Once Upon A Time (From 'Up and Down')
EXTD=
EXTT0=
EXTT1=
EXTT2=
EXTT3=
EXTT4=
EXTT5=
EXTT6=
EXTT7=
EXTT8=
EXTT9=
PLAYORDER=
